<?xml version="1.0" standalone="no"?>
<!DOCTYPE svg PUBLIC "-//W3C//DTD SVG 20010904//EN"
 "http://www.w3.org/TR/2001/REC-SVG-20010904/DTD/svg10.dtd">
<svg version="1.0" xmlns="http://www.w3.org/2000/svg"
 width="502.000000pt" height="480.000000pt" viewBox="0 0 502.000000 480.000000"
 preserveAspectRatio="xMidYMid meet">

<g transform="translate(0.000000,480.000000) scale(0.100000,-0.100000)"
fill="#000000" stroke="none">
<path d="M3758 4738 c-2 -91 -1 -95 29 -134 40 -50 204 -156 298 -191 138 -53
214 -66 375 -65 194 1 345 32 463 94 l82 44 3 157 3 157 -237 0 c-221 0 -236
-1 -229 -17 5 -10 10 -34 13 -53 3 -20 16 -45 29 -58 16 -15 23 -30 20 -43 -5
-19 21 -43 78 -75 24 -13 31 -47 13 -61 -7 -6 -29 -16 -48 -22 -30 -9 -41 -8
-74 9 l-39 19 -2 75 c-1 44 -7 81 -14 90 -8 9 -10 16 -6 16 4 0 -4 9 -18 20
-29 23 -57 26 -57 6 0 -8 -5 -16 -12 -18 -18 -6 -1 -26 37 -44 19 -9 35 -20
35 -25 0 -14 -33 -11 -55 5 -11 7 -30 16 -42 20 -20 7 -23 4 -23 -23 0 -52 -8
-61 -55 -61 -55 0 -85 33 -85 91 0 22 -3 39 -7 39 -10 -1 -43 -71 -43 -91 0
-8 -10 1 -22 19 -17 28 -25 32 -47 27 -14 -4 -27 -11 -29 -16 -6 -17 -41 -9
-52 11 -6 11 -17 20 -25 20 -11 0 -15 12 -15 41 0 22 -4 38 -9 34 -15 -9 -91
6 -91 18 0 6 7 19 17 29 15 17 13 18 -70 18 l-87 0 -2 -62z m155 -75 c5 -42 1
-56 -14 -48 -12 8 -12 85 0 85 5 0 11 -17 14 -37z"/>
<path d="M4113 4686 c-13 -13 -20 -26 -16 -29 3 -4 15 5 25 19 26 32 19 39 -9
10z"/>
<path d="M4288 4705 c-8 -9 12 -65 23 -65 5 0 9 5 9 10 0 6 7 10 16 10 28 0
13 45 -16 48 -14 2 -29 0 -32 -3z"/>
<path d="M675 4691 c-3 -6 -32 -15 -64 -22 l-58 -11 -12 -63 c-11 -55 -11 -67
4 -95 9 -17 14 -37 12 -44 -3 -7 5 -13 20 -14 46 -4 153 -46 174 -68 31 -33
19 -54 -31 -54 -23 0 -50 5 -61 11 -14 7 -35 7 -65 1 -24 -5 -44 -6 -44 -1 0
4 -9 11 -20 14 -24 8 -26 37 -4 70 13 20 14 26 3 30 -29 10 -70 -1 -82 -21 -7
-12 -20 -33 -30 -47 -24 -34 -16 -44 39 -53 37 -5 50 -13 65 -38 10 -17 19
-38 19 -47 0 -21 36 -36 107 -44 59 -7 59 -7 100 34 40 40 61 47 123 42 61 -6
39 -51 -24 -51 -17 0 -40 -7 -50 -15 -19 -15 -19 -15 5 -17 53 -3 76 5 119 41
25 20 53 40 63 44 27 10 72 -3 101 -30 23 -21 33 -24 69 -18 41 7 197 79 197
91 0 4 -23 4 -50 0 l-51 -7 15 30 c9 16 20 33 26 36 5 3 10 17 10 30 0 13 5
27 10 30 17 11 11 94 -10 135 l-20 39 -50 -6 c-39 -5 -54 -2 -69 11 -18 17
-19 16 -26 -13 -7 -33 -47 -71 -75 -71 -22 0 -49 30 -59 66 -6 21 -13 28 -27
26 -37 -6 -44 -12 -44 -35 0 -19 -9 -28 -41 -40 -36 -14 -45 -15 -69 -2 -22
11 -27 20 -23 36 4 15 -1 27 -14 38 -12 9 -39 31 -61 49 -23 18 -43 28 -47 23z
m520 -197 c35 -22 37 -25 13 -19 -16 3 -28 1 -28 -5 0 -13 -44 -23 -69 -15
-25 8 -27 22 -4 47 22 24 40 23 88 -8z m-32 -96 c34 -36 37 -42 22 -51 -11 -6
-21 -5 -28 2 -6 6 -48 11 -100 11 l-88 0 20 28 c20 29 64 49 110 51 16 1 37
-13 64 -41z"/>
<path d="M841 4634 c0 -11 3 -14 6 -6 3 7 2 16 -1 19 -3 4 -6 -2 -5 -13z"/>
<path d="M1372 4491 c-18 -59 -16 -91 7 -91 23 0 28 20 23 83 -5 57 -15 60
-30 8z"/>
<path d="M1452 4431 c-8 -5 -12 -17 -10 -27 3 -15 6 -14 21 9 18 27 13 34 -11
18z"/>
<path d="M508 4233 c7 -3 16 -2 19 1 4 3 -2 6 -13 5 -11 0 -14 -3 -6 -6z"/>
<path d="M3767 4117 c-32 -18 -42 -32 -59 -81 -13 -40 -17 -72 -13 -95 6 -37
41 -150 58 -187 5 -12 10 -36 12 -54 1 -18 9 -37 18 -41 9 -5 77 -30 153 -55
264 -88 438 -168 629 -293 198 -128 197 -128 264 -63 30 29 51 58 51 71 0 11
4 21 8 21 5 0 14 28 20 62 6 35 21 75 32 90 17 23 18 28 5 28 -11 0 -15 11
-15 38 0 21 -9 55 -20 77 -11 22 -20 47 -20 57 0 10 -4 18 -10 18 -20 0 -9 26
25 59 19 19 35 43 35 53 0 22 -54 78 -75 78 -22 0 -47 38 -52 80 -6 45 -25 60
-53 42 -14 -9 -21 -8 -31 5 -16 19 -98 13 -151 -10 -72 -32 -93 -35 -134 -20
-61 24 -108 26 -167 9 -54 -16 -129 -18 -121 -4 2 4 -5 9 -16 13 -15 5 -19 12
-15 26 5 16 1 19 -28 19 -55 0 -97 -11 -97 -26 0 -21 -16 -17 -46 11 -14 13
-35 27 -45 30 -11 4 -19 10 -19 14 0 17 -42 51 -63 51 -12 0 -39 -10 -60 -23z"/>
<path d="M1389 3767 c-65 -60 -178 -120 -276 -146 -23 -6 -68 -31 -100 -54
-32 -24 -75 -52 -96 -62 l-38 -20 43 -6 c24 -3 36 -7 28 -8 -12 -1 -13 -3 -1
-10 7 -5 11 -14 7 -20 -4 -7 -1 -9 8 -5 8 3 17 12 20 20 4 11 10 12 25 5 10
-6 21 -7 25 -4 3 3 6 -5 6 -18 0 -24 2 -24 90 -25 l90 0 -38 35 c-36 35 -36
35 -13 39 13 2 27 -1 31 -7 5 -9 21 -8 61 0 65 14 79 23 72 49 -4 14 0 20 11
20 9 0 16 -6 16 -14 0 -23 41 -31 55 -12 7 9 20 16 29 16 18 0 22 15 6 25 -15
10 -12 32 6 39 24 9 46 -13 40 -40 -4 -13 0 -27 9 -34 20 -16 19 -44 -1 -61
-14 -12 -14 -14 3 -20 10 -4 29 -8 42 -8 22 -1 23 2 18 41 -4 26 -14 49 -27
60 -17 14 -19 20 -9 36 15 25 47 44 59 37 14 -9 12 -72 -2 -79 -10 -5 -10 -7
0 -12 6 -3 12 -19 12 -35 l0 -30 48 7 c53 7 62 12 45 22 -7 4 -11 16 -9 27 4
25 48 32 66 11 7 -9 16 -16 21 -16 12 0 -29 46 -126 144 -44 45 -97 100 -117
124 -48 56 -69 54 -139 -11z m-286 -293 c9 -10 -4 -34 -19 -34 -8 0 -14 6 -14
13 0 22 19 35 33 21z"/>
<path d="M3350 3585 c0 -15 4 -24 10 -20 6 3 10 12 10 20 0 8 -4 17 -10 20 -6
4 -10 -5 -10 -20z"/>
<path d="M2860 3535 c7 -8 16 -15 21 -15 5 0 9 7 9 15 0 9 -9 15 -21 15 -18 0
-19 -2 -9 -15z"/>
<path d="M3244 3459 c-9 -15 12 -33 30 -26 9 4 16 13 16 22 0 17 -35 21 -46 4z"/>
<path d="M1445 3449 c-9 -14 -2 -20 14 -10 8 6 9 11 3 15 -6 3 -14 1 -17 -5z"/>
<path d="M4066 3431 c-19 -21 -20 -31 -3 -31 15 0 39 37 28 44 -5 3 -16 -3
-25 -13z"/>
<path d="M1395 3400 c-3 -5 -1 -10 4 -10 6 0 11 5 11 10 0 6 -2 10 -4 10 -3 0
-8 -4 -11 -10z"/>
<path d="M2323 3403 c9 -2 25 -2 35 0 9 3 1 5 -18 5 -19 0 -27 -2 -17 -5z"/>
<path d="M2880 3390 c-13 -8 -12 -10 3 -10 9 0 17 5 17 10 0 12 -1 12 -20 0z"/>
<path d="M2796 3363 c-12 -12 -6 -43 9 -43 8 0 15 9 15 19 0 21 -13 34 -24 24z"/>
<path d="M2369 3302 c-5 -13 -7 -27 -4 -30 3 -3 5 0 5 6 0 7 7 12 15 12 8 0
15 -4 15 -9 0 -5 9 -7 20 -4 22 6 24 11 10 33 -15 25 -50 20 -61 -8z"/>
<path d="M0 3298 c0 -13 13 -51 29 -84 24 -48 27 -61 16 -72 -9 -10 -11 -37
-7 -98 2 -47 1 -89 -5 -96 -26 -36 -35 -97 -28 -213 6 -125 6 -202 -2 -371 -4
-91 -2 -102 14 -108 34 -11 87 -48 149 -102 41 -36 64 -50 67 -42 3 7 6 4 6
-7 2 -34 20 -46 42 -27 11 10 28 17 37 18 38 2 82 17 82 28 0 7 16 12 37 13
28 1 44 8 62 29 13 16 36 29 50 30 14 1 28 3 30 3 2 1 -2 8 -9 16 -7 9 -10 18
-7 22 4 3 16 -6 28 -20 11 -15 27 -27 35 -27 8 0 14 -7 14 -16 0 -9 6 -14 13
-11 6 2 11 10 11 18 -3 20 -64 320 -70 344 -6 18 -4 18 9 5 8 -8 22 -49 31
-90 22 -97 48 -180 57 -180 4 0 10 9 14 19 3 11 18 27 33 37 15 9 31 23 35 31
9 15 43 17 52 3 10 -16 35 -12 35 6 0 8 7 22 15 30 8 9 15 11 15 5 0 -6 5 -11
10 -11 6 0 10 9 10 20 0 11 5 20 10 20 5 0 19 9 30 20 18 18 20 18 20 3 1 -10
11 2 22 27 99 210 117 255 110 262 -5 5 -90 7 -188 5 -173 -5 -265 -14 -292
-31 -7 -4 -19 -3 -27 4 -8 6 -18 9 -24 6 -10 -7 -16 7 -25 64 -5 28 -19 45
-66 83 l-60 48 -1 -58 c0 -56 -1 -57 -16 -35 -20 29 -29 28 -37 -3 -4 -14 -18
-50 -32 -81 -25 -56 -24 -69 8 -92 10 -7 18 -19 18 -25 0 -18 -55 -48 -74 -41
-18 7 -52 -26 -67 -64 -5 -13 -14 -20 -19 -17 -7 4 -7 11 -2 18 15 19 34 141
37 230 1 54 8 94 19 117 l18 35 -41 88 c-23 49 -41 92 -41 96 0 5 -7 14 -15
21 -8 7 -12 16 -9 21 3 5 -1 9 -9 9 -16 0 -53 40 -92 100 -16 25 -37 56 -47
69 l-18 24 0 -25z m130 -373 c43 -191 41 -179 45 -280 4 -106 -9 -86 -19 30
-4 44 -14 104 -22 133 -9 30 -14 56 -11 58 3 3 1 20 -4 37 -5 18 -12 48 -14
67 -3 19 -9 51 -15 70 -12 42 -13 75 -1 45 5 -11 23 -83 41 -160z m310 -335
c0 -5 -4 -10 -10 -10 -5 0 -10 5 -10 10 0 6 5 10 10 10 6 0 10 -4 10 -10z
m167 -312 c-3 -8 -6 -5 -6 6 -1 11 2 17 5 13 3 -3 4 -12 1 -19z m-341 -195
c-10 -10 -19 5 -10 18 6 11 8 11 12 0 2 -7 1 -15 -2 -18z"/>
<path d="M2750 3301 c0 -10 -6 -24 -14 -31 -8 -6 -12 -18 -9 -25 3 -8 -2 -21
-11 -30 -8 -9 -13 -22 -10 -30 4 -8 2 -15 -4 -15 -15 0 -25 51 -13 63 19 19
12 24 -36 26 -27 1 -55 3 -63 4 -32 4 -136 -28 -148 -45 -7 -10 -22 -18 -33
-18 -11 0 -18 -4 -14 -9 3 -5 -5 -11 -17 -13 -15 -2 -31 -19 -47 -47 -13 -24
-19 -41 -13 -37 7 4 18 -8 29 -31 18 -37 18 -39 0 -56 -12 -12 -30 -17 -54
-15 -46 4 -64 -21 -58 -76 5 -38 4 -39 -6 -13 -13 32 -34 35 -49 7 -6 -11 -21
-20 -35 -20 -13 0 -27 -5 -30 -11 -4 -6 -13 -8 -21 -5 -8 3 -14 1 -14 -4 0 -6
3 -10 8 -10 14 0 33 -81 22 -95 -21 -26 62 -125 106 -125 13 0 26 -4 29 -10 3
-5 14 -10 24 -10 10 0 26 -9 36 -20 10 -11 21 -18 25 -15 14 9 80 -16 80 -30
0 -8 9 -15 20 -15 11 0 20 6 20 14 0 8 7 16 15 20 8 3 15 11 15 18 0 7 12 27
26 43 15 17 33 40 42 53 8 13 21 21 28 18 7 -3 15 1 17 8 6 15 47 28 47 15 0
-5 10 -8 23 -6 18 2 22 -3 24 -28 1 -16 -1 -22 -3 -12 -3 9 -12 17 -20 17 -22
0 -16 -36 9 -48 17 -8 18 -11 5 -11 -10 -1 -18 -5 -18 -10 0 -5 -9 -11 -20
-14 -13 -3 -20 0 -20 8 0 32 -22 23 -41 -17 -13 -28 -18 -33 -15 -16 4 16 1
28 -6 30 -7 3 -9 11 -4 24 6 12 10 15 13 7 3 -7 9 -13 14 -13 14 0 10 26 -6
40 -11 9 -15 10 -15 1 0 -7 -14 -32 -30 -57 -22 -31 -26 -42 -14 -37 13 5 16
2 11 -9 -4 -11 1 -18 14 -21 10 -3 19 -10 19 -17 0 -7 -8 -9 -19 -5 -17 5 -29
-11 -35 -49 -2 -19 -35 -31 -48 -18 -9 9 -9 15 4 24 17 14 32 48 20 48 -18 -1
-39 -28 -45 -56 -3 -17 -24 -58 -46 -92 -23 -34 -41 -66 -41 -72 0 -6 -7 -13
-15 -16 -8 -4 -15 -13 -15 -21 0 -8 -5 -11 -11 -8 -6 4 -13 -2 -16 -14 -3 -12
-9 -21 -13 -21 -4 0 -10 -10 -13 -22 -7 -26 20 -61 40 -54 7 3 15 1 18 -4 11
-17 46 -12 43 6 -2 10 2 19 8 21 11 4 27 -34 29 -67 1 -28 25 -58 71 -89 57
-37 77 -38 118 -8 56 41 109 68 124 62 19 -7 8 -53 -19 -76 -14 -12 -16 -18
-7 -21 11 -4 10 -12 -1 -43 l-13 -38 44 -41 c48 -45 74 -63 101 -72 9 -4 17
-11 17 -18 1 -17 105 -66 141 -66 22 0 46 12 80 41 53 44 63 65 27 53 -36 -12
-82 -5 -98 14 -8 10 -23 21 -32 25 -10 3 -18 17 -18 30 0 14 -8 35 -18 48 -22
27 -34 68 -37 119 -1 19 -6 45 -10 58 -6 17 -4 22 9 22 10 0 14 5 11 10 -4 6
-1 17 5 25 9 11 8 20 -9 41 -29 37 -26 46 12 42 31 -3 32 -2 29 30 -1 24 2 32
14 32 12 0 15 7 12 29 -4 26 -2 29 14 20 10 -5 18 -6 17 -2 -5 31 3 63 16 63
8 0 37 20 65 45 32 28 58 44 68 41 9 -2 32 -8 51 -11 l35 -7 -27 32 c-30 35
-34 65 -13 114 13 32 22 38 111 66 22 7 53 23 68 36 16 13 33 24 38 24 5 0 9
7 9 15 0 8 4 15 8 15 4 0 8 16 8 36 0 19 4 38 10 42 5 4 11 23 12 42 2 28 -4
40 -33 67 -20 18 -44 33 -53 33 -10 0 -30 12 -47 27 -16 15 -37 26 -47 25 -10
-2 -18 2 -18 7 0 6 -7 11 -17 11 -15 0 -15 1 0 18 19 21 22 57 7 67 -5 3 -10
15 -10 26 0 26 -40 41 -61 23 -9 -8 -19 -11 -23 -7 -10 10 -106 10 -100 1 3
-5 1 -8 -4 -8 -6 0 -12 7 -16 15 -3 9 -18 15 -36 15 -16 0 -30 5 -30 11 0 5
-4 7 -10 4 -5 -3 -7 -19 -3 -35 3 -18 0 -36 -7 -45 -7 -8 -10 -22 -6 -30 5
-15 -9 -22 -17 -7 -12 19 -18 74 -9 68 6 -3 13 -2 16 3 6 8 -15 21 -34 21 -13
0 -43 -87 -37 -110 7 -28 -8 -25 -21 5 -10 21 -16 24 -39 19 -16 -4 -36 -11
-46 -16 -14 -7 -22 -5 -33 9 -18 24 -17 31 3 35 9 2 18 12 19 23 1 11 8 38 14
60 21 74 23 85 11 85 -6 0 -11 -8 -11 -19z m-116 -91 c34 0 40 -14 21 -50 -16
-31 -34 -36 -135 -33 -19 0 -27 -1 -17 -4 9 -2 17 -9 17 -14 0 -5 6 -9 14 -9
8 0 18 -5 22 -11 4 -7 1 -10 -7 -7 -8 3 -26 2 -41 -3 -33 -9 -75 15 -45 26 9
4 17 18 17 31 0 14 7 27 16 31 24 9 64 48 64 63 0 9 7 8 25 -4 13 -9 35 -16
49 -16z m166 -130 c13 -8 13 -10 -2 -10 -9 0 -20 5 -23 10 -8 13 5 13 25 0z
m-178 -15 c4 -5 2 -15 -4 -22 -12 -15 -32 -18 -23 -3 3 6 -3 10 -14 10 -11 0
-19 -6 -17 -12 1 -7 1 -10 -1 -5 -8 13 -73 8 -79 -8 -5 -11 -10 -12 -25 -2
-28 17 -23 27 14 27 18 0 37 4 43 9 17 17 95 22 106 6z m294 -22 c-6 -6 -36 9
-36 18 0 5 9 4 20 -3 10 -7 18 -14 16 -15z m-501 -13 c-27 -12 -35 -12 -35 0
0 6 12 10 28 9 24 0 25 -1 7 -9z m255 -34 c0 -14 -5 -28 -12 -32 -8 -5 -9 -2
-5 9 3 9 2 19 -4 22 -11 7 -3 25 12 25 5 0 9 -11 9 -24z m340 0 c0 -8 -7 -16
-15 -20 -8 -3 -15 -4 -15 -2 0 3 -3 11 -6 20 -4 12 0 16 15 16 12 0 21 -6 21
-14z m-700 -50 c0 -8 -4 -17 -9 -21 -12 -7 -24 12 -16 25 9 15 25 12 25 -4z
m862 -58 c60 -104 90 -198 63 -198 -8 0 -15 4 -15 9 0 5 -13 14 -29 19 -27 10
-29 14 -24 46 4 27 -1 46 -21 81 -15 25 -31 45 -35 45 -13 0 -22 30 -16 51 11
35 34 19 77 -53z m-1012 -24 c0 -8 -4 -12 -10 -9 -5 3 -10 10 -10 16 0 5 5 9
10 9 6 0 10 -7 10 -16z m47 -16 c-3 -8 -6 -5 -6 6 -1 11 2 17 5 13 3 -3 4 -12
1 -19z m626 -198 c43 -14 110 -67 101 -81 -3 -5 -22 -9 -43 -9 -41 0 -98 -24
-118 -49 -10 -13 -12 -10 -6 19 3 19 12 54 18 77 11 35 10 44 -4 59 -12 13
-12 15 -1 7 8 -6 32 -16 53 -23z m-372 -223 c-1 -4 -1 -14 -1 -22 0 -8 -7 -15
-16 -15 -11 0 -14 5 -10 16 3 9 6 20 6 26 0 5 5 8 11 6 6 -2 10 -7 10 -11z
m496 -53 c-3 -3 -12 -4 -19 -1 -8 3 -5 6 6 6 11 1 17 -2 13 -5z m-247 -254 c0
-5 -5 -10 -11 -10 -5 0 -7 5 -4 10 3 6 8 10 11 10 2 0 4 -4 4 -10z m120 -60
c0 -5 -5 -10 -11 -10 -5 0 -7 5 -4 10 3 6 8 10 11 10 2 0 4 -4 4 -10z"/>
<path d="M3437 3313 c-14 -13 -6 -33 12 -33 21 0 45 23 34 33 -8 9 -38 9 -46
0z"/>
<path d="M3610 3310 c0 -5 7 -10 15 -10 8 0 15 5 15 10 0 6 -7 10 -15 10 -8 0
-15 -4 -15 -10z"/>
<path d="M3967 3294 c-8 -8 1 -24 14 -24 5 0 9 7 9 15 0 15 -12 20 -23 9z"/>
<path d="M2182 3218 c-7 -7 -12 -9 -12 -5 0 4 -11 -3 -25 -15 -44 -38 -32 -41
48 -12 19 7 21 13 9 31 -6 10 -11 10 -20 1z"/>
<path d="M170 3170 c0 -5 5 -10 11 -10 6 0 25 -11 42 -24 44 -32 77 -49 77
-38 0 8 -114 82 -126 82 -2 0 -4 -4 -4 -10z"/>
<path d="M2745 3130 c-3 -5 -1 -10 4 -10 6 0 11 5 11 10 0 6 -2 10 -4 10 -3 0
-8 -4 -11 -10z"/>
<path d="M344 3055 c47 -42 238 -154 321 -188 111 -46 458 -118 477 -99 17 17
0 30 -45 37 -81 12 -292 68 -329 86 -20 11 -63 28 -95 40 -32 12 -124 52 -205
90 -81 38 -151 69 -155 69 -4 -1 10 -16 31 -35z"/>
<path d="M1935 3047 c-10 -8 -15 -19 -12 -24 4 -6 -5 -23 -18 -37 -14 -15 -25
-35 -25 -44 1 -16 1 -15 11 1 6 9 15 15 20 11 5 -3 19 6 31 21 15 19 24 23 31
16 11 -11 47 -15 47 -6 0 13 -46 75 -56 75 -5 0 -18 -6 -29 -13z"/>
<path d="M2308 3033 c7 -3 16 -2 19 1 4 3 -2 6 -13 5 -11 0 -14 -3 -6 -6z"/>
<path d="M4737 3033 c-12 -11 -8 -23 8 -23 8 0 15 7 15 15 0 16 -12 20 -23 8z"/>
<path d="M12 2985 c0 -16 2 -22 5 -12 2 9 2 23 0 30 -3 6 -5 -1 -5 -18z"/>
<path d="M3445 2989 c-4 -11 -4 -23 -1 -27 10 -9 39 25 32 37 -11 17 -24 13
-31 -10z"/>
<path d="M1837 2926 c-20 -16 -22 -32 -4 -39 7 -2 18 6 24 19 13 29 5 37 -20
20z"/>
<path d="M3798 2922 c-31 -6 -27 -28 8 -38 37 -12 39 -9 21 21 -7 12 -19 19
-29 17z"/>
<path d="M1616 2765 c-16 -24 -14 -61 4 -79 8 -8 13 -7 19 3 8 12 14 12 43 -1
155 -72 160 -73 174 -53 8 10 14 26 13 34 -1 22 -17 59 -18 42 -1 -10 -6 -9
-18 5 -12 12 -30 19 -53 18 -22 -1 -43 6 -57 18 -12 11 -26 18 -30 15 -5 -3
-21 0 -36 8 -24 12 -27 11 -41 -10z"/>
<path d="M3495 2729 c-10 -11 -19 -32 -20 -47 0 -17 -5 -27 -15 -27 -23 0 -41
-22 -33 -40 4 -11 0 -21 -10 -27 -18 -9 -23 -33 -9 -42 5 -3 27 13 51 34 36
33 46 38 67 30 13 -5 30 -7 38 -4 7 3 20 -2 29 -10 9 -9 22 -16 31 -16 8 0 17
-8 21 -19 4 -14 13 -17 36 -15 21 3 31 -1 36 -14 12 -34 35 -53 50 -41 17 14
17 29 0 29 -7 0 -28 11 -47 25 -18 13 -37 22 -41 19 -5 -3 -9 2 -9 10 0 9 -8
16 -19 16 -23 0 -37 30 -19 42 9 5 6 8 -10 8 -17 0 -27 9 -37 35 -14 32 -52
76 -64 74 -3 0 -15 -9 -26 -20z"/>
<path d="M2603 2685 c-9 -24 1 -27 15 -5 8 13 8 20 2 20 -6 0 -13 -7 -17 -15z"/>
<path d="M4690 2681 c0 -6 4 -13 10 -16 6 -3 7 1 4 9 -7 18 -14 21 -14 7z"/>
<path d="M4430 2669 c0 -5 5 -7 10 -4 6 3 10 8 10 11 0 2 -4 4 -10 4 -5 0 -10
-5 -10 -11z"/>
<path d="M1992 2631 c-12 -17 -20 -36 -17 -43 3 -7 -6 -26 -20 -42 -14 -16
-25 -40 -25 -53 0 -13 -4 -22 -9 -19 -5 3 -11 -6 -14 -20 -3 -18 -1 -24 9 -20
7 3 16 1 19 -4 10 -17 28 -11 21 6 -9 24 13 47 30 33 9 -7 14 -7 14 -1 0 15
63 38 67 25 3 -7 11 -9 19 -6 8 3 14 0 14 -7 0 -6 4 -8 10 -5 5 3 30 -5 56
-19 25 -13 52 -22 59 -20 7 3 15 -3 17 -12 5 -28 84 47 92 88 8 39 0 49 -13
17 -5 -13 -10 -18 -10 -11 -1 6 -9 12 -19 12 -22 0 -79 27 -87 41 -4 5 -13 9
-20 9 -22 0 -120 47 -135 65 -18 22 -34 19 -58 -14z m-2 -85 c0 -3 -4 -8 -10
-11 -5 -3 -10 -1 -10 4 0 6 5 11 10 11 6 0 10 -2 10 -4z"/>
<path d="M4381 2608 c-13 -16 -21 -31 -19 -33 2 -3 15 9 27 26 29 40 23 45 -8
7z"/>
<path d="M4689 2583 c-5 -138 -11 -175 -29 -193 -11 -11 -20 -29 -20 -40 0
-34 -1 -35 -21 -42 -20 -8 -69 -106 -69 -139 0 -11 -7 -19 -15 -19 -8 0 -15
-5 -15 -10 0 -19 -102 -110 -146 -129 -41 -19 -56 -42 -35 -55 5 -3 7 -14 4
-24 -3 -11 8 -29 31 -49 28 -26 42 -32 72 -29 21 1 40 8 42 14 2 7 10 12 18
12 8 0 14 7 14 15 0 10 10 15 30 15 24 0 30 4 30 21 0 13 10 23 29 30 21 7 33
22 46 55 9 25 31 64 49 87 74 98 79 112 81 219 1 71 -3 104 -12 114 -17 17
-16 24 2 24 29 0 -2 84 -34 95 -11 3 -23 15 -26 26 -8 24 -25 25 -26 2z"/>
<path d="M2371 2551 c-10 -6 -10 -10 -1 -16 13 -8 24 -1 19 14 -3 6 -10 7 -18
2z"/>
<path d="M4292 2488 c-18 -23 -32 -49 -32 -58 0 -9 -4 -20 -9 -25 -4 -6 -11
-27 -14 -47 -4 -29 -2 -38 9 -38 19 0 18 -10 -3 -26 -17 -13 -17 -15 0 -28 10
-7 15 -20 11 -29 -8 -22 11 -30 27 -11 11 13 11 23 -2 59 -13 36 -14 45 -2 61
8 11 12 27 9 37 -2 9 0 17 6 17 5 0 8 11 6 24 -1 13 3 31 11 40 7 9 10 16 6
16 -5 0 0 9 9 19 10 10 13 21 8 25 -4 3 -23 -14 -40 -36z"/>
<path d="M3134 2458 c3 -13 6 -28 6 -35 0 -7 23 -36 52 -65 45 -46 51 -59 53
-98 1 -25 5 -64 9 -87 10 -58 -9 -57 -60 4 -68 83 -111 120 -144 127 -18 3
-35 4 -37 2 -9 -9 41 -145 50 -139 6 3 7 1 3 -5 -8 -14 11 -65 23 -58 15 10
21 -34 21 -156 0 -64 4 -119 8 -122 12 -7 27 5 66 54 38 47 45 70 23 70 -14 0
-57 41 -57 53 0 4 7 7 15 7 8 0 15 6 15 14 0 23 20 29 38 13 24 -20 98 -57
117 -57 8 0 24 9 35 20 11 11 25 20 32 20 21 0 98 32 98 41 0 24 -24 63 -56
91 -21 19 -52 64 -72 106 -19 40 -43 77 -54 83 -10 5 -18 15 -18 21 0 13 -67
78 -80 78 -5 0 -7 6 -4 14 3 9 -5 15 -27 20 -54 11 -62 8 -55 -16z"/>
<path d="M1280 2335 c0 -8 5 -15 10 -15 6 0 10 7 10 15 0 8 -4 15 -10 15 -5 0
-10 -7 -10 -15z"/>
<path d="M1505 2340 c3 -5 8 -10 11 -10 2 0 4 5 4 10 0 6 -5 10 -11 10 -5 0
-7 -4 -4 -10z"/>
<path d="M3470 2294 c0 -8 7 -31 15 -51 16 -38 28 -36 38 7 5 20 1 28 -23 42
-26 15 -30 15 -30 2z"/>
<path d="M3941 2288 c0 -7 11 -35 24 -63 17 -35 24 -43 25 -28 0 12 -4 24 -9
27 -5 3 -12 22 -15 41 -6 32 -27 51 -25 23z"/>
<path d="M3880 2252 c-23 -8 -307 -301 -313 -323 -4 -14 1 -20 21 -25 15 -3
33 -8 40 -10 8 -2 28 3 46 11 18 9 82 26 142 39 l109 23 -1 44 c-1 24 -6 71
-12 104 -6 39 -7 64 0 72 6 8 5 20 -3 35 -7 13 -11 25 -10 26 5 7 -4 9 -19 4z"/>
<path d="M1650 2208 c0 -7 7 -26 15 -42 8 -15 15 -39 15 -51 0 -13 11 -33 25
-46 14 -14 25 -35 25 -51 0 -17 5 -28 14 -28 15 0 26 -21 26 -51 0 -10 7 -19
15 -19 12 0 14 7 9 28 -4 15 -11 32 -16 39 -5 6 -15 54 -21 106 -7 52 -18 101
-26 110 -16 20 -81 23 -81 5z"/>
<path d="M4266 2191 c-4 -5 0 -33 8 -63 14 -55 31 -49 23 8 -2 16 0 37 5 47 7
13 5 17 -11 17 -11 0 -22 -4 -25 -9z"/>
<path d="M1786 2158 c4 -7 13 -20 19 -28 7 -8 15 -26 18 -40 13 -55 102 -141
160 -155 49 -13 59 -37 28 -66 -22 -21 -23 -18 28 -121 18 -38 37 -68 42 -68
5 0 9 -6 9 -14 0 -7 8 -16 18 -20 9 -3 22 -9 29 -12 9 -4 10 5 6 30 -6 41 -8
40 54 25 43 -11 45 -13 40 -43 -3 -17 -3 -25 0 -18 8 19 35 15 31 -5 -2 -10
-10 -17 -16 -15 -7 1 -12 -3 -12 -8 0 -15 53 -1 68 18 7 9 12 11 12 4 0 -8 14
-10 48 -5 73 9 85 18 80 64 -2 21 -2 39 0 39 17 0 62 -48 62 -67 0 -26 10 -29
115 -38 58 -4 67 -3 52 7 -10 7 -47 34 -82 61 -35 26 -68 47 -74 47 -5 0 -26
16 -46 35 -20 19 -56 44 -80 55 -24 12 -45 24 -47 28 -2 4 -24 17 -50 29 -35
16 -48 29 -48 43 0 12 -4 19 -9 16 -5 -3 -11 1 -15 9 -3 8 -11 15 -18 15 -7 0
-31 16 -53 35 -27 23 -50 35 -71 35 -28 0 -84 29 -57 30 6 0 15 -5 18 -10 4
-6 11 -7 17 -4 18 11 -22 34 -48 28 -12 -3 -25 -1 -28 5 -8 13 -173 91 -193
91 -8 0 -11 -5 -7 -12z"/>
<path d="M290 2070 c0 -5 5 -10 10 -10 6 0 10 5 10 10 0 6 -4 10 -10 10 -5 0
-10 -4 -10 -10z"/>
<path d="M0 1786 c0 -132 0 -134 22 -128 18 4 20 2 16 -16 -3 -11 1 -30 9 -42
12 -17 21 -20 46 -14 68 15 85 12 97 -17 7 -15 9 -37 5 -49 -4 -14 -2 -26 8
-33 18 -15 32 -67 17 -67 -5 0 -10 3 -10 8 -1 18 -18 32 -33 26 -21 -8 -22
-44 -2 -44 17 0 20 -16 5 -25 -6 -4 -7 -11 -4 -17 4 -6 10 -6 17 1 18 18 26
13 29 -21 l4 -33 14 30 c19 41 17 235 -3 235 -4 0 -5 11 -1 24 9 37 -13 99
-46 131 -16 16 -30 34 -30 40 0 20 -132 145 -153 145 -4 0 -7 -60 -7 -134z"/>
<path d="M1938 1913 c7 -3 16 -2 19 1 4 3 -2 6 -13 5 -11 0 -14 -3 -6 -6z"/>
<path d="M1977 1900 c3 -11 7 -20 9 -20 2 0 4 9 4 20 0 11 -4 20 -9 20 -5 0
-7 -9 -4 -20z"/>
<path d="M2386 1892 c-3 -6 -1 -14 5 -17 14 -9 20 -2 10 14 -6 8 -11 9 -15 3z"/>
<path d="M3517 1863 c-28 -32 -28 -33 -7 -33 11 0 19 4 15 9 -3 5 2 17 11 25
8 9 14 20 12 24 -2 5 -16 -7 -31 -25z"/>
<path d="M4550 1890 c1 -16 20 -31 36 -28 30 5 23 33 -8 33 -16 1 -28 -2 -28
-5z"/>
<path d="M2495 1810 c3 -5 8 -10 11 -10 2 0 4 5 4 10 0 6 -5 10 -11 10 -5 0
-7 -4 -4 -10z"/>
<path d="M2530 1793 c1 -8 25 -27 75 -58 l30 -19 -24 27 c-14 15 -30 27 -38
27 -7 0 -13 7 -13 15 0 8 -7 15 -15 15 -8 0 -15 -3 -15 -7z"/>
<path d="M3775 1795 c-24 -8 -237 -55 -320 -70 -110 -20 -135 -30 -135 -50 0
-13 8 -15 43 -11 23 4 117 15 210 26 92 12 179 25 193 30 14 6 41 10 60 10 19
0 37 6 40 13 2 7 17 12 32 11 16 -1 38 4 51 11 21 11 17 13 -47 23 -69 12
-107 14 -127 7z"/>
<path d="M2640 1714 c0 -8 32 -33 43 -34 5 0 5 4 2 10 -8 13 -45 33 -45 24z"/>
<path d="M4040 1695 l-45 -23 37 -16 c46 -20 98 -21 98 -3 0 21 -24 67 -35 66
-5 0 -30 -11 -55 -24z"/>
<path d="M1645 1679 c-4 -6 -5 -12 -2 -15 7 -7 37 7 37 17 0 13 -27 11 -35 -2z"/>
<path d="M3713 1660 c-28 -4 -138 -11 -244 -15 l-192 -7 -67 -63 c-36 -34 -78
-70 -93 -79 -62 -41 -134 -38 -236 10 -50 23 -59 25 -100 14 -94 -25 -131 -41
-277 -114 -198 -101 -265 -118 -404 -101 -71 8 -111 20 -121 37 -4 5 -2 28 2
49 8 33 5 49 -23 109 -30 66 -34 70 -66 70 -30 0 -90 -23 -102 -39 -3 -4 -26
-19 -53 -34 -26 -16 -54 -39 -63 -52 -9 -14 -21 -25 -26 -25 -6 0 -26 -13 -45
-30 -18 -16 -38 -30 -43 -30 -6 0 -10 -6 -10 -14 0 -7 -7 -19 -15 -26 -13 -11
-10 -17 22 -46 45 -39 52 -40 86 -13 20 15 40 20 84 19 32 -1 76 2 98 6 38 6
39 5 20 -9 -19 -14 -19 -16 -2 -22 9 -4 24 -4 33 -1 9 3 12 2 9 -5 -4 -5 -1
-17 7 -26 11 -14 10 -16 -7 -11 -11 3 -28 9 -38 13 -13 6 -16 3 -11 -9 4 -10
1 -16 -9 -16 -8 0 -18 8 -21 17 -5 11 -10 13 -17 6 -17 -17 0 -40 27 -35 21 4
24 1 24 -27 0 -17 4 -31 8 -31 5 0 14 -11 20 -24 6 -13 20 -27 31 -31 12 -3
21 -13 21 -21 0 -8 6 -14 14 -14 10 0 17 -16 22 -47 4 -27 13 -58 21 -70 8
-12 13 -28 11 -35 -3 -7 5 -20 16 -30 12 -10 16 -17 11 -18 -11 0 -57 29 -140
88 -25 19 -49 31 -53 27 -8 -8 33 -43 113 -96 32 -22 62 -43 65 -47 14 -19
139 -76 191 -86 63 -13 65 -12 49 29 -9 23 -7 28 10 32 11 3 20 9 20 14 0 5
19 9 41 9 36 0 40 2 29 15 -10 12 -10 15 4 15 9 0 16 -4 16 -9 0 -5 17 -12 37
-16 20 -4 57 -17 82 -29 26 -13 52 -21 59 -19 6 3 16 -6 21 -19 7 -17 10 -18
10 -5 1 17 21 25 21 8 0 -4 11 -6 25 -3 14 2 25 0 25 -5 0 -10 40 -7 70 4 8 4
18 6 21 5 4 -1 42 10 85 23 43 13 88 22 99 19 33 -8 75 12 75 36 0 12 4 18 10
15 5 -3 46 13 91 37 57 30 91 41 114 39 26 -2 41 5 69 31 20 18 41 34 46 34 6
1 17 2 26 3 8 0 12 6 9 11 -4 6 7 10 24 10 20 0 31 5 31 14 0 8 20 19 48 26
60 15 182 50 202 58 8 3 23 7 33 9 10 2 25 10 33 18 9 8 23 15 33 15 9 0 26 7
37 15 10 8 27 15 37 15 10 0 30 11 45 25 29 27 38 30 46 16 10 -16 50 11 86
58 42 55 45 61 30 61 -14 0 -192 -89 -200 -100 -7 -9 -119 -60 -134 -60 -28 0
-201 -62 -208 -75 -5 -7 -23 -17 -41 -21 -17 -3 -59 -19 -92 -34 -33 -15 -84
-35 -112 -44 -29 -10 -53 -21 -53 -25 0 -12 -106 -61 -133 -61 -15 0 -27 -4
-27 -8 0 -5 -29 -19 -65 -31 -36 -13 -68 -28 -71 -33 -6 -9 -111 -60 -150 -72
-74 -23 -179 4 -203 53 -23 47 -23 51 -7 51 9 0 16 -8 16 -20 0 -14 9 -21 38
-26 20 -4 44 -13 53 -21 14 -12 17 -12 22 0 7 19 -11 37 -30 30 -9 -4 -16 2
-20 16 -3 11 -9 21 -13 21 -8 0 -20 38 -25 78 -3 17 4 26 23 34 43 18 54 18
117 2 112 -29 288 21 326 93 8 14 28 27 53 34 23 6 52 18 66 27 14 9 47 17 75
17 76 2 143 15 149 31 3 8 15 14 27 14 19 0 21 -4 15 -35 -6 -31 -5 -35 14
-35 12 0 31 5 43 12 12 6 39 12 60 14 44 4 60 11 52 25 -4 5 3 9 14 9 12 0 21
5 21 11 0 8 -13 9 -37 4 -31 -5 -36 -4 -25 6 16 17 15 29 -3 29 -8 0 -15 -9
-15 -19 0 -29 -27 -33 -68 -11 l-37 21 33 -4 c22 -2 32 1 32 10 0 7 7 13 15
13 8 0 15 5 15 10 0 17 -52 10 -130 -17 -64 -23 -94 -27 -205 -28 -110 -2
-147 -7 -245 -34 -63 -17 -147 -40 -185 -50 -148 -40 -282 -91 -237 -91 26 0
10 -16 -28 -28 -78 -24 -112 -16 -187 45 -46 38 -50 45 -68 123 -7 30 -16 63
-20 73 -14 32 24 19 61 -23 41 -45 72 -57 103 -41 16 9 22 8 30 -6 10 -17 10
-17 11 0 0 9 -1 19 -2 21 -2 2 6 13 16 25 20 22 67 26 131 12 18 -4 40 -1 55
6 14 7 37 13 52 13 15 0 31 8 37 18 9 14 10 11 11 -15 0 -18 5 -33 10 -33 9 0
14 24 8 33 -8 11 27 37 43 32 11 -4 31 3 48 16 20 15 37 20 55 15 13 -3 27 -2
30 3 4 5 32 17 64 26 88 26 116 38 128 54 10 12 13 12 22 -5 11 -18 11 -18 12
4 0 24 10 28 27 11 18 -18 145 2 170 26 7 7 58 18 115 24 91 10 201 24 279 36
14 2 31 -1 37 -7 12 -12 32 -2 32 17 0 7 14 17 32 20 54 12 92 45 52 45 -8 0
-12 5 -9 10 4 6 9 8 13 6 4 -2 7 9 8 24 1 21 -5 30 -20 34 -28 8 -128 5 -193
-4z m-2110 -315 c-3 -9 -8 -14 -10 -11 -3 3 -2 9 2 15 9 16 15 13 8 -4z m617
-595 c0 -5 -4 -10 -10 -10 -5 0 -10 5 -10 10 0 6 5 10 10 10 6 0 10 -4 10 -10z"/>
<path d="M2668 1560 c-42 -15 -101 -33 -130 -40 -115 -27 -322 -106 -293 -111
46 -9 132 -2 142 11 7 8 13 10 13 5 0 -17 44 -12 75 10 49 33 70 42 111 49 21
4 58 16 81 27 23 11 47 18 52 15 5 -4 12 -2 16 4 3 5 14 10 23 10 9 0 24 5 32
10 13 8 12 11 -5 24 -25 19 -25 19 -117 -14z"/>
<path d="M123 1565 c-18 -20 -16 -33 7 -45 25 -13 60 -4 60 15 0 17 -27 45
-43 45 -7 -1 -18 -7 -24 -15z"/>
<path d="M27 1542 c-21 -23 -22 -51 -3 -58 8 -3 12 -12 9 -20 -4 -11 -9 -12
-19 -3 -11 9 -14 8 -14 -4 0 -8 9 -17 20 -20 14 -4 20 -14 20 -35 0 -32 23
-61 35 -42 3 5 3 19 0 30 -5 15 0 23 19 31 21 10 35 34 36 62 0 5 -14 6 -31 2
-28 -6 -30 -5 -24 14 3 12 2 21 -3 21 -5 0 -13 9 -18 21 -9 20 -10 20 -27 1z"/>
<path d="M290 1494 c0 -8 103 -165 127 -195 73 -87 137 -146 221 -200 53 -34
121 -78 150 -97 29 -19 55 -33 57 -30 5 4 -17 37 -67 102 -33 43 -145 155
-203 203 -27 22 -79 65 -114 95 -152 126 -171 140 -171 122z"/>
<path d="M4305 1430 c-3 -5 -1 -10 4 -10 6 0 11 5 11 10 0 6 -2 10 -4 10 -3 0
-8 -4 -11 -10z"/>
<path d="M1077 1345 c1 -44 4 -93 6 -110 3 -16 5 -38 6 -47 1 -12 6 -15 18
-11 14 5 15 1 10 -24 -3 -17 -4 -33 -1 -36 5 -5 144 30 152 38 3 2 -12 23 -31
47 -19 24 -63 84 -98 133 l-64 91 2 -81z"/>
<path d="M3567 1416 c-6 -15 1 -26 15 -26 4 0 8 9 8 20 0 23 -15 27 -23 6z"/>
<path d="M3413 1377 c-3 -5 -15 -13 -27 -18 -16 -7 -10 -8 24 -5 25 3 61 12
80 20 l35 15 -53 -2 c-30 -1 -56 -6 -59 -10z"/>
<path d="M4143 1380 c-26 -10 -30 -25 -10 -33 7 -3 23 6 36 19 24 25 15 30
-26 14z"/>
<path d="M3310 1340 c-11 -7 -7 -10 18 -10 17 0 32 5 32 10 0 13 -30 13 -50 0z"/>
<path d="M3211 1321 c-11 -7 -11 -9 0 -13 19 -6 49 2 49 13 0 11 -31 11 -49 0z"/>
<path d="M3130 1300 c-11 -7 -7 -10 18 -10 17 0 32 5 32 10 0 13 -30 13 -50 0z"/>
<path d="M3635 1301 c-18 -7 -17 -9 10 -15 17 -3 50 -2 75 3 30 6 36 9 19 10
-15 1 -39 3 -55 6 -16 2 -38 1 -49 -4z"/>
<path d="M4107 1302 c-2 -4 -3 -14 -3 -22 1 -17 57 -21 63 -5 4 12 -55 37 -60
27z"/>
<path d="M40 1280 c0 -5 5 -10 10 -10 6 0 10 5 10 10 0 6 -4 10 -10 10 -5 0
-10 -4 -10 -10z"/>
<path d="M15 1160 c-8 -12 20 -60 35 -60 19 0 20 21 3 45 -20 27 -29 30 -38
15z"/>
<path d="M3249 1099 c-8 -5 -24 -9 -36 -9 -33 0 -129 -45 -136 -64 -4 -9 -31
-27 -61 -41 -43 -20 -54 -29 -50 -43 5 -14 4 -15 -5 -2 -9 12 -14 13 -28 2
-10 -6 -25 -15 -33 -18 -8 -4 -27 -11 -42 -18 -16 -6 -28 -14 -28 -18 0 -4 -7
-5 -15 -2 -11 5 -15 -1 -15 -20 0 -14 2 -26 5 -26 10 0 85 43 91 51 3 5 13 9
23 9 25 0 139 53 174 80 15 12 27 28 27 36 0 8 4 14 9 14 5 0 17 3 27 7 13 5
16 3 11 -10 -7 -19 18 -23 43 -7 13 9 13 11 0 20 -8 5 -10 10 -4 10 5 0 15 -5
21 -11 7 -7 18 -3 35 14 14 14 34 27 44 29 15 3 12 6 -12 15 -19 7 -37 7 -45
2z"/>
<path d="M4950 1034 c-61 -63 -192 -180 -229 -206 -31 -22 -26 -26 35 -34 27
-3 62 -11 77 -16 25 -10 28 -15 23 -40 -5 -25 11 -76 30 -97 7 -7 54 41 54 55
0 7 16 25 35 41 l36 28 -3 163 -3 163 -55 -57z"/>
<path d="M3578 1052 c-28 -16 -37 -32 -19 -32 23 0 67 26 64 38 -6 16 -12 15
-45 -6z"/>
<path d="M3814 1058 c-6 -10 20 -38 35 -38 17 1 33 20 28 34 -7 18 -52 22 -63
4z"/>
<path d="M2508 1043 c7 -3 16 -2 19 1 4 3 -2 6 -13 5 -11 0 -14 -3 -6 -6z"/>
<path d="M961 1002 c0 -7 -6 -10 -12 -7 -6 4 -13 -3 -16 -14 -5 -18 -10 -21
-39 -15 -45 8 -45 -11 0 -33 19 -9 37 -25 41 -37 5 -17 9 -11 21 29 8 28 12
59 10 70 -2 11 -4 14 -5 7z"/>
<path d="M1358 885 c-97 -83 -106 -94 -88 -105 7 -4 9 -13 5 -19 -7 -13 10
-44 49 -86 22 -24 23 -29 11 -42 -21 -20 -19 -37 3 -28 19 7 22 8 40 6 6 0 12
-5 12 -11 0 -25 100 -140 122 -140 5 0 8 -5 8 -11 0 -15 62 -79 77 -79 7 0 13
-7 13 -15 0 -8 4 -15 9 -15 5 0 26 -16 45 -35 20 -19 40 -35 44 -35 4 0 32
-22 62 -50 30 -27 64 -52 75 -56 10 -4 25 -13 33 -20 7 -8 22 -14 32 -14 10 0
25 -11 34 -25 10 -16 26 -25 41 -25 16 0 25 -6 25 -16 0 -8 16 -22 35 -30 19
-8 35 -19 35 -24 0 -16 2427 -13 2433 3 2 6 -29 72 -69 145 -41 73 -74 137
-74 142 0 5 19 29 43 53 23 25 57 62 76 83 19 22 55 62 80 89 99 109 112 127
107 141 -8 20 -46 18 -111 -7 -31 -12 -78 -22 -103 -24 -26 -1 -72 -15 -102
-30 -307 -153 -661 -232 -1085 -242 -585 -13 -1080 113 -1530 390 -44 27 -82
52 -85 56 -3 3 -27 21 -55 40 -27 19 -70 52 -94 73 -24 21 -49 38 -55 38 -6 0
-50 -34 -98 -75z"/>
<path d="M145 860 c-4 -7 0 -19 9 -28 20 -21 26 -13 10 16 -8 16 -14 20 -19
12z"/>
<path d="M927 854 c-4 -4 -7 -15 -7 -24 0 -9 -9 -35 -20 -58 -11 -22 -20 -48
-20 -56 0 -8 -4 -17 -9 -20 -5 -3 -12 -27 -16 -53 -4 -27 -11 -53 -17 -60 -5
-7 -7 -17 -3 -23 4 -6 2 -16 -3 -23 -5 -7 -12 -25 -16 -42 -6 -27 -5 -28 7
-13 8 10 17 15 20 12 11 -11 25 33 51 161 15 72 32 142 38 157 10 28 8 54 -5
42z"/>
<path d="M2745 839 c-10 -15 3 -25 16 -12 7 7 7 13 1 17 -6 3 -14 1 -17 -5z"/>
<path d="M3725 780 c-3 -5 1 -10 9 -10 9 0 16 5 16 10 0 6 -4 10 -9 10 -6 0
-13 -4 -16 -10z"/>
<path d="M4555 781 c-3 -5 -1 -12 5 -16 5 -3 10 1 10 9 0 18 -6 21 -15 7z"/>
<path d="M4962 677 c-18 -19 -29 -36 -25 -40 3 -4 -1 -7 -10 -7 -9 0 -17 -4
-17 -10 0 -19 19 -10 60 30 23 22 39 44 35 50 -8 13 -5 15 -43 -23z"/>
<path d="M1089 663 c-2 -4 -31 -31 -64 -58 -32 -28 -66 -57 -75 -65 -9 -8 -29
-25 -44 -36 -23 -19 -26 -25 -17 -42 19 -37 11 -48 -13 -18 l-24 29 -16 -31
c-8 -16 -26 -39 -40 -49 l-23 -19 21 -35 c11 -19 31 -50 42 -68 24 -36 25 -66
3 -66 -15 0 -20 26 -7 36 5 3 -1 14 -13 25 -13 10 -19 13 -15 6 4 -7 4 -21 1
-32 -5 -16 -15 -20 -46 -20 -29 0 -39 -4 -39 -16 0 -15 -2 -15 -26 1 -18 11
-34 14 -52 10 -15 -4 -52 -9 -83 -10 -30 -2 -78 -11 -105 -20 -93 -31 -372
-21 -408 15 -6 6 -18 10 -28 10 -16 0 -18 -9 -18 -67 0 -38 3 -85 6 -106 l7
-37 121 0 c130 0 299 12 491 36 66 8 132 14 148 14 15 0 27 4 27 9 0 23 52 6
80 -25 27 -31 35 -34 84 -34 60 0 69 12 59 74 -3 18 0 43 6 55 7 12 14 52 16
89 5 65 38 302 55 392 5 25 5 49 1 53 -5 5 -10 5 -12 0z m-123 -484 c24 -49
26 -69 10 -69 -9 0 -16 7 -16 15 0 8 -4 15 -10 15 -5 0 -17 12 -26 26 -15 22
-15 27 -3 35 20 12 32 6 45 -22z m-79 -21 c-3 -8 -6 -5 -6 6 -1 11 2 17 5 13
3 -3 4 -12 1 -19z"/>
<path d="M2480 660 c0 -5 4 -10 9 -10 6 0 13 5 16 10 3 6 -1 10 -9 10 -9 0
-16 -4 -16 -10z"/>
<path d="M481 555 c-69 -41 -129 -75 -133 -75 -5 0 -7 -4 -4 -8 3 -5 -10 -14
-28 -20 -18 -7 -41 -21 -51 -32 -10 -11 -22 -20 -27 -20 -5 0 -38 -20 -75 -45
-118 -81 -64 -54 172 85 52 30 269 162 274 166 1 2 1 7 0 13 -2 6 -60 -23
-128 -64z"/>
<path d="M4990 600 c0 -5 5 -10 10 -10 6 0 10 5 10 10 0 6 -4 10 -10 10 -5 0
-10 -4 -10 -10z"/>
<path d="M3076 581 c-15 -16 -15 -19 -1 -24 23 -9 45 3 45 24 0 24 -22 24 -44
0z"/>
<path d="M600 565 c-7 -8 -19 -15 -27 -15 -13 0 -13 -2 -2 -17 13 -15 11 -16
-14 -9 -24 6 -27 5 -15 -7 11 -12 19 -11 55 6 27 13 43 28 43 39 0 22 -23 24
-40 3z"/>
<path d="M4860 542 c0 -5 28 -20 63 -32 34 -13 68 -25 75 -27 8 -3 12 4 12 21
0 14 -3 26 -7 27 -5 0 -15 2 -23 3 -62 13 -120 17 -120 8z"/>
<path d="M690 499 c0 -9 10 -24 21 -35 22 -19 22 -19 11 1 -6 11 -16 27 -22
35 -8 13 -10 13 -10 -1z"/>
<path d="M4768 385 c-21 -35 -38 -73 -38 -84 0 -11 -8 -25 -17 -30 -10 -5 -28
-28 -41 -50 l-22 -40 38 -20 c50 -25 56 -35 71 -103 l12 -58 71 0 c60 0 75 4
109 27 21 16 39 33 39 39 0 11 -63 34 -94 34 -9 0 -16 5 -16 10 0 13 0 13 50
-5 64 -23 80 -20 80 13 0 16 -6 29 -12 29 -7 0 -49 3 -93 7 -44 3 -74 3 -67 0
19 -9 14 -24 -7 -24 -29 0 -111 38 -111 51 0 9 36 10 145 5 l145 -7 0 112 c0
62 -3 110 -6 106 -3 -3 -43 7 -89 24 -46 16 -89 29 -97 29 -7 0 -30 -29 -50
-65z m139 -151 c-3 -3 -12 -4 -19 -1 -8 3 -5 6 6 6 11 1 17 -2 13 -5z"/>
<path d="M728 243 c7 -3 16 -2 19 1 4 3 -2 6 -13 5 -11 0 -14 -3 -6 -6z"/>
<path d="M4612 104 c-37 -72 -30 -88 8 -19 14 25 28 45 32 45 10 0 10 27 1 33
-5 3 -23 -24 -41 -59z"/>
</g>
</svg>
